<?xml version="1.0" standalone="no"?>
<!DOCTYPE svg PUBLIC "-//W3C//DTD SVG 20010904//EN"
 "http://www.w3.org/TR/2001/REC-SVG-20010904/DTD/svg10.dtd">
<svg version="1.0" xmlns="http://www.w3.org/2000/svg"
 width="1200.000000pt" height="1200.000000pt" viewBox="0 0 1200.000000 1200.000000"
 preserveAspectRatio="xMidYMid meet">

<g transform="translate(0.000000,1200.000000) scale(0.100000,-0.100000)"
fill="#000000" stroke="none">
<path d="M0 6000 l0 -6000 6000 0 6000 0 0 6000 0 6000 -6000 0 -6000 0 0
-6000z m6218 3596 c505 -103 930 -462 1105 -931 170 -455 117 -941 -146 -1345
-31 -46 -53 -88 -51 -92 3 -4 13 -8 23 -8 9 0 55 -13 102 -29 458 -155 783
-554 842 -1033 l11 -98 261 0 c292 0 305 -3 338 -73 16 -33 16 -46 -8 -249
-14 -117 -28 -230 -31 -250 l-6 -38 790 -2 789 -3 -265 -388 c-240 -353 -264
-390 -253 -410 7 -12 126 -188 266 -392 l254 -370 -884 -3 c-834 -2 -885 -3
-885 -20 0 -9 -19 -165 -41 -347 -36 -290 -42 -365 -48 -620 l-6 -290 -28 -57
c-16 -32 -48 -75 -73 -97 -88 -77 118 -71 -2339 -71 -2468 0 -2252 -7 -2344
76 -29 26 -58 64 -72 96 -22 50 -24 68 -30 338 -5 248 -12 329 -48 620 -22
184 -41 343 -41 352 0 17 -48 18 -820 20 l-820 3 266 388 c146 213 264 393
261 400 -3 7 -122 183 -265 392 l-260 380 725 3 724 2 -6 43 c-3 23 -17 136
-30 251 -25 202 -25 210 -8 244 10 20 31 45 46 56 27 20 44 21 291 24 l262 3
11 97 c49 402 308 769 673 952 87 44 240 100 271 100 32 0 28 15 -17 80 -100
144 -182 338 -226 531 -20 90 -23 131 -23 304 0 155 4 219 18 285 138 645 644
1111 1297 1194 70 9 377 -4 448 -18z"/>
<path d="M5691 9339 c-255 -54 -466 -171 -646 -360 -223 -233 -340 -527 -338
-844 1 -147 12 -223 49 -351 57 -200 163 -376 318 -529 165 -163 335 -260 554
-317 151 -39 365 -49 508 -24 602 105 1034 612 1034 1216 0 600 -412 1094
-1012 1214 -112 23 -346 20 -467 -5z"/>
<path d="M4843 6985 c-214 -39 -391 -134 -544 -291 -153 -158 -246 -352 -274
-571 l-7 -53 1916 0 1916 0 -6 43 c-41 309 -194 557 -444 722 -140 92 -272
140 -441 160 -49 6 -58 4 -85 -18 -123 -103 -301 -200 -473 -257 -165 -56
-276 -73 -461 -74 -335 0 -626 97 -894 299 -81 61 -86 61 -203 40z"/>
<path d="M3427 5773 c3 -21 12 -101 21 -178 l17 -140 2470 -3 2471 -2 18 162
c9 90 20 171 22 181 5 16 -119 17 -2509 17 l-2515 0 5 -37z"/>
<path d="M7775 5318 c-2 -7 -16 -107 -30 -223 -14 -115 -28 -211 -30 -213 -2
-2 -21 10 -42 27 -124 99 -319 54 -437 -101 -128 -168 -172 -445 -94 -597 88
-171 331 -136 472 68 16 22 32 39 35 36 4 -2 3 -39 -2 -81 -12 -109 -4 -124
68 -124 52 0 55 1 55 25 0 14 32 278 70 587 39 309 70 572 70 585 0 22 -4 23
-65 23 -44 0 -67 -4 -70 -12z m-152 -482 c18 -7 43 -25 57 -40 l24 -27 -15
-122 c-13 -102 -22 -135 -52 -199 -72 -149 -167 -238 -255 -238 -38 0 -50 5
-82 38 -31 31 -39 48 -48 102 -23 130 25 315 105 410 50 60 109 90 175 90 32
0 73 -6 91 -14z"/>
<path d="M3084 5310 c-313 -46 -534 -328 -534 -681 0 -59 5 -132 11 -161 16
-79 71 -187 123 -240 160 -167 470 -170 675 -7 28 22 51 47 51 54 0 16 -48 75
-61 75 -5 0 -38 -20 -74 -45 -77 -52 -115 -65 -215 -72 -90 -6 -142 6 -205 50
-93 63 -144 170 -152 318 -15 237 97 459 273 541 140 66 282 58 396 -22 31
-22 63 -40 70 -40 7 0 28 19 47 42 l35 41 -47 43 c-102 92 -234 127 -393 104z"/>
<path d="M3829 4937 c-107 -45 -182 -118 -235 -230 -114 -241 -62 -497 118
-578 42 -19 70 -24 138 -24 75 0 93 4 153 32 213 101 333 408 247 635 -24 65
-79 127 -142 159 -67 35 -204 38 -279 6z m221 -109 c54 -37 74 -89 78 -198 9
-249 -119 -434 -289 -418 -99 10 -151 81 -157 218 -8 182 70 357 182 406 51
22 147 18 186 -8z"/>
<path d="M4803 4935 c-48 -24 -129 -100 -164 -155 -9 -14 -19 -23 -21 -20 -3
3 -2 38 1 78 9 103 4 112 -64 112 -53 0 -55 -1 -55 -27 0 -25 -85 -726 -95
-785 l-4 -28 72 0 73 0 22 208 c26 231 47 310 110 401 56 83 101 114 170 119
71 5 93 -14 99 -85 4 -39 -42 -487 -63 -610 l-5 -33 70 0 c84 0 71 -31 105
255 26 227 41 278 108 371 61 85 164 128 228 94 22 -12 40 -61 40 -111 0 -37
-53 -508 -65 -576 l-6 -33 70 0 c65 0 71 2 76 23 18 86 66 564 63 628 -8 137
-65 199 -183 199 -104 0 -191 -56 -270 -172 -36 -55 -40 -53 -48 18 -7 59 -35
113 -71 135 -46 28 -129 25 -193 -6z"/>
<path d="M6123 4941 c-51 -24 -123 -96 -154 -157 -13 -24 -27 -44 -30 -44 -3
0 -6 46 -5 103 l1 102 -56 3 -56 3 -12 -98 c-6 -54 -27 -228 -46 -388 -19
-159 -37 -305 -40 -322 l-6 -33 70 0 69 0 6 38 c3 20 15 109 26 198 29 231 73
349 159 427 44 39 90 53 150 43 l39 -6 12 66 c7 35 10 67 7 71 -16 16 -95 12
-134 -6z"/>
<path d="M6641 4944 c-132 -35 -270 -153 -335 -284 -116 -237 -71 -504 92
-550 114 -31 230 23 324 151 23 33 44 59 46 59 2 0 1 -41 -3 -90 -9 -109 -3
-120 66 -120 47 0 48 1 53 33 11 65 96 780 94 782 -2 2 -27 10 -57 19 -68 20
-206 20 -280 0z m189 -106 c-1 -7 -9 -76 -19 -153 -14 -106 -26 -158 -50 -215
-43 -102 -98 -178 -157 -218 -43 -30 -55 -33 -99 -29 -41 4 -54 10 -77 38 -35
41 -41 76 -36 192 3 77 9 103 35 159 53 112 129 189 220 223 50 18 183 20 183
3z"/>
<path d="M8313 4945 c-134 -41 -241 -158 -295 -320 -18 -56 -23 -92 -23 -180
0 -100 3 -116 29 -173 47 -102 132 -160 251 -169 115 -10 244 35 334 116 l43
40 -22 30 c-12 17 -28 31 -36 31 -7 0 -43 -20 -79 -45 -73 -50 -117 -65 -190
-65 -114 0 -184 72 -193 199 l-4 66 118 17 c291 40 424 126 424 271 0 122 -92
197 -240 196 -41 0 -94 -6 -117 -14z m199 -124 c26 -23 32 -36 31 -66 -1 -21
-10 -49 -20 -64 -36 -50 -159 -94 -325 -117 -57 -8 -58 -3 -26 81 24 64 100
153 150 178 20 10 59 17 95 17 55 0 67 -4 95 -29z"/>
<path d="M9029 4946 c-126 -45 -189 -130 -189 -255 0 -104 39 -145 191 -201
105 -39 136 -62 150 -110 10 -34 9 -44 -12 -87 -34 -68 -89 -96 -181 -91 -57
3 -75 9 -114 36 -55 40 -82 38 -107 -6 -19 -33 -19 -33 3 -57 41 -44 116 -69
210 -69 105 -1 172 20 233 75 63 55 97 126 97 204 0 103 -43 148 -197 206
-141 53 -180 109 -133 187 31 51 75 72 151 72 50 0 77 -6 115 -25 64 -33 78
-32 103 8 l21 32 -36 32 c-20 17 -57 39 -82 47 -55 19 -173 20 -223 2z"/>
<path d="M3655 3853 c7 -39 75 -620 75 -638 0 -13 249 -15 2205 -15 1863 0
2205 2 2205 14 0 14 65 573 74 634 l5 32 -2284 0 -2284 0 4 -27z"/>
<path d="M3750 2802 c0 -102 4 -152 12 -160 16 -16 4309 -18 4339 -2 17 10 19
23 19 160 l0 150 -2185 0 -2185 0 0 -148z"/>
</g>
</svg>
